<svg data-bbox="28 25 143.499 149.917" viewBox="0 0 200 200" height="200" width="200" xmlns="http://www.w3.org/2000/svg" data-type="shape" fill="#3D9BE9">
    <g>
        <path d="M93.697 27.45c3.208-3.267 8.892-3.267 12.1 0l13.1 13.308 18.558-3.025c2.242-.391 4.509.15 6.375 1.492a8.504 8.504 0 0 1 3.409 5.617l2.775 18.466 16.783 8.459a8.457 8.457 0 0 1 4.283 4.975 8.432 8.432 0 0 1-.55 6.541l-8.6 16.559 8.609 16.716a8.422 8.422 0 0 1 .541 6.525 8.463 8.463 0 0 1-4.275 4.984l-16.716 8.341-2.85 18.575a8.485 8.485 0 0 1-3.409 5.617 8.56 8.56 0 0 1-6.383 1.5l-18.417-3.075-13.233 13.358a8.428 8.428 0 0 1-6.05 2.534 8.41 8.41 0 0 1-6.042-2.534l-13.108-13.316-18.55 3.033a8.505 8.505 0 0 1-6.375-1.5 8.45 8.45 0 0 1-3.408-5.617l-2.775-18.466-16.792-8.45a8.45 8.45 0 0 1-4.283-4.984 8.45 8.45 0 0 1 .55-6.533l8.608-16.567-8.608-16.708a8.45 8.45 0 0 1-.55-6.533 8.471 8.471 0 0 1 4.275-4.975l16.716-8.342 2.859-18.583a8.47 8.47 0 0 1 3.408-5.617 8.401 8.401 0 0 1 6.375-1.492L80.464 40.8l13.233-13.35Zm6.05 5.8L86.539 46.6a8.471 8.471 0 0 1-7.459 2.417l-18.4-3.067-2.95 18.592a8.468 8.468 0 0 1-4.6 6.333l-16.708 8.342L44.972 96a8.566 8.566 0 0 1 0 7.817L36.355 120.4l16.775 8.55a8.482 8.482 0 0 1 4.6 6.333l2.775 18.467 18.592-2.942a8.076 8.076 0 0 1 1.408-.125 8.49 8.49 0 0 1 6.034 2.542l13.1 13.317 13.316-13.317a8.482 8.482 0 0 1 7.459-2.417l18.408 3.067 2.95-18.592a8.462 8.462 0 0 1 4.6-6.333l16.708-8.342-8.55-16.783a8.519 8.519 0 0 1 0-7.817l8.609-16.575-16.767-8.558a8.447 8.447 0 0 1-4.6-6.333l-2.775-18.459-18.6 2.934c-2.708.475-5.492-.442-7.442-2.417l-13.1-13.308-.035-.024-.073-.018Zm22.397 46.824 5.891 5.892-36.733 36.733-19.842-19.841 5.892-5.892 13.95 13.95 30.842-30.842Z" fill-rule="evenodd"></path>
    </g>
</svg>