<svg data-bbox="29 29 141.667 141.667" viewBox="0 0 200 200" height="200" width="200" xmlns="http://www.w3.org/2000/svg" data-type="shape" fill="black">
    <g>
        <path d="M116.342 125.733c-3.034 3.384-7.342 5.5-12.342 6.259v9.508h-8.333v-9.583C84.883 129.933 79.758 121 79.525 120.575l7.275-4.058c.175.308 4.367 7.466 13.05 7.508 4.642-.05 8.042-1.35 10.283-3.858a8.415 8.415 0 0 0 2.142-6.659c-.467-4.091-3.142-6.083-12.45-9.3-10.008-3.308-19.5-6.45-20.708-17.116-.559-4.842.941-9.517 4.208-13.167 3.033-3.383 7.342-5.5 12.342-6.258v-9.5H104v9.575c10.783 1.983 15.908 10.925 16.15 11.341l-7.292 4.042c-.166-.283-4.35-7.45-13.041-7.492-4.075.234-8.042 1.35-10.284 3.859a8.415 8.415 0 0 0-2.141 6.658c.525 4.633 4.05 6.508 15.1 10.167 9.258 3.191 16.966 6.608 18.058 16.25.558 4.841-.933 9.525-4.208 13.166ZM99.833 29C60.775 29 29 60.775 29 99.833c0 39.05 31.775 70.834 70.833 70.834 39.059 0 70.834-31.784 70.834-70.834C170.667 60.775 138.892 29 99.833 29Z" fill-rule="evenodd"></path>
    </g>
</svg>