<svg data-bbox="34 30 131.739 140" viewBox="0 0 200 200" height="200" width="200" xmlns="http://www.w3.org/2000/svg" data-type="shape" fill="black">
    <g>
        <path d="M99.87 120c-11.04 0-20-8.96-20-20s8.96-20 20-20 20 8.96 20 20-8.96 20-20 20Zm59.37-8.82-5.04-2.91c.45-2.82.67-5.55.67-8.27 0-2.72-.22-5.45-.67-8.27l5.04-2.91c3-1.74 5.15-4.54 6.05-7.89.9-3.36.44-6.86-1.3-9.87l-7-12.13c-1.74-3-4.54-5.15-7.89-6.05-3.36-.9-6.86-.44-9.86 1.3l-5.15 2.97c-4.27-3.4-9.03-6.13-14.22-8.15v-6c0-7.17-5.83-13-13-13h-14c-7.17 0-13 5.83-13 13v6c-5.19 2.02-9.95 4.75-14.22 8.15l-5.14-2.97c-3-1.74-6.5-2.22-9.87-1.3-3.35.9-6.15 3.05-7.89 6.06l-7 12.12c-1.74 3.01-2.2 6.51-1.3 9.87.9 3.35 3.05 6.15 6.05 7.89l5.04 2.91c-.45 2.82-.67 5.55-.67 8.27 0 2.72.22 5.45.67 8.27l-5.04 2.91c-3 1.74-5.15 4.54-6.05 7.89-.9 3.36-.44 6.86 1.3 9.87l7 12.12c1.73 3.01 4.54 5.16 7.89 6.06 3.36.89 6.86.44 9.86-1.3l5.15-2.97c4.27 3.4 9.03 6.13 14.22 8.15v6c0 7.17 5.83 13 13 13h14c7.17 0 13-5.83 13-13v-6c5.19-2.02 9.95-4.75 14.22-8.15l5.14 2.97c3.01 1.74 6.52 2.19 9.87 1.3 3.35-.9 6.16-3.05 7.89-6.06l7-12.12c1.74-3.01 2.2-6.51 1.3-9.87-.9-3.35-3.05-6.15-6.05-7.89Z" fill-rule="evenodd"></path>
    </g>
</svg>