<svg data-bbox="29 35 141.667 129.168" viewBox="0 0 200 200" height="200" width="200" xmlns="http://www.w3.org/2000/svg" data-type="shape" fill="black">
    <g>
        <path d="M83.407 49.6c3.467.08 12.806 1.012 19.551 8.268 5.692 6.1 8.142 15.133 7.284 26.95-.55 12.725-6.384 20.642-11.167 25.033a8.483 8.483 0 0 0-2.767 6.234c-.016 2.925 2.109 5.658 5.15 6.641l13.8 4.542c20.501 6.695 21.99 21.299 22.068 24.507l.002.473-.003.12v5.55c0 3.442-2.8 6.25-6.25 6.25H35.25c-3.442 0-6.25-2.808-6.25-6.25l.003-6.444c.096-3.044 1.648-17.542 22.072-24.206l13.717-4.5c3.475-1.142 5.641-4.442 5.141-7.875a8.415 8.415 0 0 0-2.666-5.033c-4.792-4.4-10.625-12.342-11.192-25.284-.842-11.616 1.608-20.608 7.292-26.708 7.333-7.875 17.525-8.275 19.491-8.275l.55.007Zm36.136-14.596c3.179.06 12.905.84 20.065 8.52 5.784 6.217 8.292 15.176 7.467 26.6-.542 12.492-6.317 20.35-11.067 24.734-.55.508-.908 1.2-1.016 1.95-.109.692.716 1.983 1.666 2.3l11.925 3.933c20.568 6.725 22.009 22.081 22.078 25.3l.001.467-.004.108.009 4c0 5.742-4.675 10.417-10.425 10.417h-16.1c-2.484-7.725-9.017-18.342-26.284-23.975l-12.391-4.075c5.791-5.592 12.45-15.192 13.091-29.983 1.025-14.092-2.166-25.234-9.491-33.117-3.35-3.583-7.134-5.958-10.8-7.592 7.5-9 18.491-9.591 20.808-9.591l.468.004Z" fill-rule="evenodd"></path>
    </g>
</svg>